<svg width="60" height="61" viewBox="0 0 60 61" fill="none" xmlns="http://www.w3.org/2000/svg">
<g clip-path="url(#clip0)">
<path d="M8.78906 60.5325H28.3594V39.291H21.3281V32.2884H28.3594V23.535C28.3594 18.7084 32.3021 14.7817 37.1484 14.7817H45.9375V21.7844H38.9062C36.9676 21.7844 35.3906 23.355 35.3906 25.2857V32.2884H45.6203L44.4484 39.291H35.3906V60.5325H51.2109C56.0573 60.5325 60 56.6058 60 51.7791V9.5297C60 4.70306 56.0573 0.776367 51.2109 0.776367H8.78906C3.94272 0.776367 0 4.70306 0 9.5297V51.7791C0 56.6058 3.94272 60.5325 8.78906 60.5325ZM3.51562 9.5297C3.51562 6.63381 5.88135 4.2777 8.78906 4.2777H51.2109C54.1187 4.2777 56.4844 6.63381 56.4844 9.5297V51.7791C56.4844 54.675 54.1187 57.0311 51.2109 57.0311H38.9062V42.7924H47.4266L49.7704 28.787H38.9062V25.2857H49.4531V11.2804H37.1484C30.3635 11.2804 24.8438 16.7776 24.8438 23.535V28.787H17.8125V42.7924H24.8438V57.0311H8.78906C5.88135 57.0311 3.51562 54.675 3.51562 51.7791V9.5297Z" fill="#D0D650"/>
</g>
<defs>
<clipPath id="clip0">
<rect width="60" height="59.7561" fill="white" transform="translate(0 0.776367)"/>
</clipPath>
</defs>
</svg>
