<svg width="60" height="61" viewBox="0 0 60 61" fill="none" xmlns="http://www.w3.org/2000/svg">
<g clip-path="url(#clip0)">
<path d="M8.78906 60.5325H51.2109C56.0573 60.5325 60 56.6058 60 51.7791V9.5297C60 4.70306 56.0573 0.776367 51.2109 0.776367H8.78906C3.94272 0.776367 0 4.70306 0 9.5297V51.7791C0 56.6058 3.94272 60.5325 8.78906 60.5325ZM3.51562 9.5297C3.51562 6.63381 5.88135 4.2777 8.78906 4.2777H51.2109C54.1187 4.2777 56.4844 6.63381 56.4844 9.5297V51.7791C56.4844 54.675 54.1187 57.0311 51.2109 57.0311H8.78906C5.88135 57.0311 3.51562 54.675 3.51562 51.7791V9.5297Z" fill="#D0D650"/>
<path d="M30 46.4104C38.7231 46.4104 45.8203 39.3421 45.8203 30.6544C45.8203 21.9668 38.7231 14.8984 30 14.8984C21.2769 14.8984 14.1797 21.9668 14.1797 30.6544C14.1797 39.3421 21.2769 46.4104 30 46.4104ZM30 18.3998C36.785 18.3998 42.3047 23.897 42.3047 30.6544C42.3047 37.4118 36.785 42.9091 30 42.9091C23.215 42.9091 17.6953 37.4118 17.6953 30.6544C17.6953 23.897 23.215 18.3998 30 18.3998Z" fill="#D0D650"/>
<path d="M47.5781 18.3998C50.4858 18.3998 52.8516 16.0436 52.8516 13.1478C52.8516 10.2519 50.4858 7.89575 47.5781 7.89575C44.6704 7.89575 42.3047 10.2519 42.3047 13.1478C42.3047 16.0436 44.6704 18.3998 47.5781 18.3998ZM47.5781 11.3971C48.5472 11.3971 49.3359 12.1826 49.3359 13.1478C49.3359 14.1129 48.5472 14.8984 47.5781 14.8984C46.609 14.8984 45.8203 14.1129 45.8203 13.1478C45.8203 12.1826 46.609 11.3971 47.5781 11.3971Z" fill="#D0D650"/>
</g>
<defs>
<clipPath id="clip0">
<rect width="60" height="59.7561" fill="white" transform="translate(0 0.776367)"/>
</clipPath>
</defs>
</svg>
