<svg width="60" height="61" viewBox="0 0 60 61" fill="none" xmlns="http://www.w3.org/2000/svg">
<g clip-path="url(#clip0)">
<path d="M17.6953 21.9011H10.6641C9.69315 21.9011 8.90625 22.6848 8.90625 23.6518V51.6625C8.90625 52.6294 9.69315 53.4131 10.6641 53.4131H17.6953C18.6662 53.4131 19.4531 52.6294 19.4531 51.6625V23.6518C19.4531 22.6848 18.6662 21.9011 17.6953 21.9011ZM15.9375 49.9118H12.4219V25.4025H15.9375V49.9118Z" fill="#D0D650"/>
<path d="M14.1797 7.89575C11.272 7.89575 8.90625 10.2519 8.90625 13.1478C8.90625 16.0436 11.272 18.3998 14.1797 18.3998C17.0874 18.3998 19.4531 16.0436 19.4531 13.1478C19.4531 10.2519 17.0874 7.89575 14.1797 7.89575ZM14.1797 14.8984C13.2106 14.8984 12.4219 14.1129 12.4219 13.1478C12.4219 12.1826 13.2106 11.3971 14.1797 11.3971C15.1488 11.3971 15.9375 12.1826 15.9375 13.1478C15.9375 14.1129 15.1488 14.8984 14.1797 14.8984Z" fill="#D0D650"/>
<path d="M41.6766 22.0091C38.8046 21.545 35.8649 22.0893 33.5042 23.4493C33.403 22.5776 32.6596 21.901 31.7578 21.901H24.7266C23.7556 21.901 22.9688 22.6847 22.9688 23.6517V51.6623C22.9688 52.6293 23.7556 53.413 24.7266 53.413H31.7578C32.7287 53.413 33.5156 52.6293 33.5156 51.6623V35.9063C33.5156 33.9756 35.0926 32.405 37.0312 32.405C38.9699 32.405 40.5469 33.9756 40.5469 35.9063V51.6623C40.5469 52.6293 41.3338 53.413 42.3047 53.413H49.3359C50.3069 53.413 51.0938 52.6293 51.0938 51.6623V32.8181C51.0938 27.5898 47.3836 22.9314 41.6766 22.0091ZM47.5781 49.9117H44.0625V35.9063C44.0625 32.0448 40.9085 28.9037 37.0312 28.9037C33.154 28.9037 30 32.0448 30 35.9063V49.9117H26.4844V25.4023H30V27.153C30 27.861 30.4285 28.4993 31.0854 28.7706C31.7418 29.0414 32.498 28.8914 33.0006 28.3908L33.8205 27.5743C35.5463 25.856 38.4091 25.028 41.1136 25.4653C45.2513 26.1341 47.5781 29.4271 47.5781 32.8181V49.9117Z" fill="#D0D650"/>
<path d="M51.0938 0.776367H8.90625C4.0448 0.776367 0 4.80792 0 9.64641V51.6624C0 56.5041 4.048 60.5325 8.90625 60.5325H51.0938C55.9552 60.5325 60 56.5009 60 51.6624V9.64641C60 4.80472 55.952 0.776367 51.0938 0.776367ZM56.4844 51.6624C56.4844 54.5724 54.0157 57.0311 51.0938 57.0311H8.90625C5.98434 57.0311 3.51562 54.5724 3.51562 51.6624V9.64641C3.51562 6.73638 5.98434 4.2777 8.90625 4.2777H51.0938C54.0157 4.2777 56.4844 6.73638 56.4844 9.64641V51.6624Z" fill="#D0D650"/>
</g>
<defs>
<clipPath id="clip0">
<rect width="60" height="59.7561" fill="white" transform="translate(0 0.776367)"/>
</clipPath>
</defs>
</svg>
