<svg width="393" height="61" viewBox="0 0 393 61" fill="none" xmlns="http://www.w3.org/2000/svg">
<g clip-path="url(#clip0)">
<path d="M341.789 60.5325H384.211C389.057 60.5325 393 56.6058 393 51.7791V9.5297C393 4.70306 389.057 0.776367 384.211 0.776367H341.789C336.943 0.776367 333 4.70306 333 9.5297V51.7791C333 56.6058 336.943 60.5325 341.789 60.5325ZM336.516 9.5297C336.516 6.63381 338.881 4.2777 341.789 4.2777H384.211C387.119 4.2777 389.484 6.63381 389.484 9.5297V51.7791C389.484 54.675 387.119 57.0311 384.211 57.0311H341.789C338.881 57.0311 336.516 54.675 336.516 51.7791V9.5297Z" fill="#D0D650"/>
<path d="M363 46.4104C371.723 46.4104 378.82 39.3421 378.82 30.6544C378.82 21.9668 371.723 14.8984 363 14.8984C354.277 14.8984 347.18 21.9668 347.18 30.6544C347.18 39.3421 354.277 46.4104 363 46.4104ZM363 18.3998C369.785 18.3998 375.305 23.897 375.305 30.6544C375.305 37.4118 369.785 42.9091 363 42.9091C356.215 42.9091 350.695 37.4118 350.695 30.6544C350.695 23.897 356.215 18.3998 363 18.3998Z" fill="#D0D650"/>
<path d="M380.578 18.3998C383.486 18.3998 385.852 16.0436 385.852 13.1478C385.852 10.2519 383.486 7.89575 380.578 7.89575C377.67 7.89575 375.305 10.2519 375.305 13.1478C375.305 16.0436 377.67 18.3998 380.578 18.3998ZM380.578 11.3971C381.547 11.3971 382.336 12.1826 382.336 13.1478C382.336 14.1129 381.547 14.8984 380.578 14.8984C379.609 14.8984 378.82 14.1129 378.82 13.1478C378.82 12.1826 379.609 11.3971 380.578 11.3971Z" fill="#D0D650"/>
</g>
<g clip-path="url(#clip1)">
<path d="M155.154 0.776367H126.846C117.96 0.776367 111 7.70807 111 16.5578V44.7511C111 53.6008 117.96 60.5325 126.846 60.5325H155.154C164.04 60.5325 171 53.6008 171 44.7511V16.5578C171 7.70807 164.038 0.776367 155.154 0.776367ZM167.129 44.7511C167.129 51.4399 161.868 56.6772 155.154 56.6772H126.846C120.132 56.6772 114.871 51.438 114.871 44.7511V16.5578C114.871 9.87086 120.132 4.6316 126.846 4.6316H155.154C161.87 4.6316 167.129 9.87086 167.129 16.5578V44.7511Z" fill="#D0D650"/>
<path d="M159.869 16.0335C159.248 15.5805 158.415 15.5419 157.752 15.9274C157.09 16.3149 155.622 16.5057 154.446 16.6599C154.202 16.6927 153.962 16.7235 153.73 16.7563C152.082 15.3954 149.979 14.6321 147.809 14.6321C142.922 14.6321 138.912 18.3986 138.627 23.1367C134.195 22.3927 130.136 20.0911 127.26 16.6329C126.832 16.1163 126.168 15.8638 125.499 15.9506C124.833 16.0431 124.264 16.473 123.995 17.0859C123.871 17.3674 122.791 20.014 122.791 26.5602C122.791 32.2293 127.283 36.3949 130.364 38.5866C128.257 39.5407 125.828 39.8916 123.521 39.6371C122.619 39.5407 121.775 40.0689 121.477 40.9151C121.179 41.7633 121.508 42.704 122.27 43.1839C125.909 45.4701 130.115 46.6787 134.435 46.6787C148.308 46.6787 156.704 35.8243 157.016 25.1222C157.415 24.5458 158.175 23.4239 159.461 21.4558C159.975 20.6636 160.407 18.9557 160.618 18.0093C160.786 17.2613 160.49 16.4845 159.869 16.0335ZM153.524 23.37C153.286 23.6977 153.157 24.0947 153.157 24.4995C153.157 32.1078 147.348 42.8235 134.437 42.8235C133.27 42.8235 132.112 42.7174 130.978 42.5093C132.492 41.9387 133.922 41.1426 135.236 40.1344C135.762 39.7316 136.043 39.0839 135.981 38.4266C135.919 37.7693 135.522 37.1871 134.928 36.8883C134.845 36.8459 126.664 32.5608 126.664 26.5621C126.664 24.5516 126.772 22.9709 126.915 21.7681C130.715 25.0258 135.55 26.9746 140.638 27.2252C140.677 27.2271 140.717 27.2291 140.754 27.2271C141.881 27.1944 142.709 26.3713 142.709 25.2995C142.709 25.0335 142.655 24.781 142.556 24.5497C142.508 24.2605 142.482 23.9695 142.482 23.6784C142.482 20.8159 144.871 18.4873 147.809 18.4873C149.284 18.4873 150.702 19.0887 151.703 20.1354C152.16 20.6096 152.828 20.8236 153.472 20.6983C153.912 20.6154 154.419 20.5499 154.951 20.4805C155.141 20.4554 155.332 20.4303 155.528 20.4034C154.074 22.6086 153.55 23.3353 153.524 23.37Z" fill="#D0D650"/>
</g>
<g clip-path="url(#clip2)">
<path d="M8.78906 60.5325H28.3594V39.291H21.3281V32.2884H28.3594V23.535C28.3594 18.7084 32.3021 14.7817 37.1484 14.7817H45.9375V21.7844H38.9062C36.9676 21.7844 35.3906 23.355 35.3906 25.2857V32.2884H45.6203L44.4484 39.291H35.3906V60.5325H51.2109C56.0573 60.5325 60 56.6058 60 51.7791V9.5297C60 4.70306 56.0573 0.776367 51.2109 0.776367H8.78906C3.94272 0.776367 0 4.70306 0 9.5297V51.7791C0 56.6058 3.94272 60.5325 8.78906 60.5325ZM3.51562 9.5297C3.51562 6.63381 5.88135 4.2777 8.78906 4.2777H51.2109C54.1187 4.2777 56.4844 6.63381 56.4844 9.5297V51.7791C56.4844 54.675 54.1187 57.0311 51.2109 57.0311H38.9062V42.7924H47.4266L49.7704 28.787H38.9062V25.2857H49.4531V11.2804H37.1484C30.3635 11.2804 24.8438 16.7776 24.8438 23.535V28.787H17.8125V42.7924H24.8438V57.0311H8.78906C5.88135 57.0311 3.51562 54.675 3.51562 51.7791V9.5297Z" fill="#D0D650"/>
</g>
<g clip-path="url(#clip3)">
<path d="M239.695 21.9011H232.664C231.693 21.9011 230.906 22.6848 230.906 23.6518V51.6625C230.906 52.6294 231.693 53.4131 232.664 53.4131H239.695C240.666 53.4131 241.453 52.6294 241.453 51.6625V23.6518C241.453 22.6848 240.666 21.9011 239.695 21.9011ZM237.938 49.9118H234.422V25.4025H237.938V49.9118Z" fill="#D0D650"/>
<path d="M236.18 7.89575C233.272 7.89575 230.906 10.2519 230.906 13.1478C230.906 16.0436 233.272 18.3998 236.18 18.3998C239.087 18.3998 241.453 16.0436 241.453 13.1478C241.453 10.2519 239.087 7.89575 236.18 7.89575ZM236.18 14.8984C235.211 14.8984 234.422 14.1129 234.422 13.1478C234.422 12.1826 235.211 11.3971 236.18 11.3971C237.149 11.3971 237.938 12.1826 237.938 13.1478C237.938 14.1129 237.149 14.8984 236.18 14.8984Z" fill="#D0D650"/>
<path d="M263.677 22.0091C260.805 21.545 257.865 22.0893 255.504 23.4493C255.403 22.5776 254.66 21.901 253.758 21.901H246.727C245.756 21.901 244.969 22.6847 244.969 23.6517V51.6623C244.969 52.6293 245.756 53.413 246.727 53.413H253.758C254.729 53.413 255.516 52.6293 255.516 51.6623V35.9063C255.516 33.9756 257.093 32.405 259.031 32.405C260.97 32.405 262.547 33.9756 262.547 35.9063V51.6623C262.547 52.6293 263.334 53.413 264.305 53.413H271.336C272.307 53.413 273.094 52.6293 273.094 51.6623V32.8181C273.094 27.5898 269.384 22.9314 263.677 22.0091ZM269.578 49.9117H266.062V35.9063C266.062 32.0448 262.909 28.9037 259.031 28.9037C255.154 28.9037 252 32.0448 252 35.9063V49.9117H248.484V25.4023H252V27.153C252 27.861 252.428 28.4993 253.085 28.7706C253.742 29.0414 254.498 28.8914 255.001 28.3908L255.82 27.5743C257.546 25.856 260.409 25.028 263.114 25.4653C267.251 26.1341 269.578 29.4271 269.578 32.8181V49.9117Z" fill="#D0D650"/>
<path d="M273.094 0.776367H230.906C226.045 0.776367 222 4.80792 222 9.64641V51.6624C222 56.5041 226.048 60.5325 230.906 60.5325H273.094C277.955 60.5325 282 56.5009 282 51.6624V9.64641C282 4.80472 277.952 0.776367 273.094 0.776367ZM278.484 51.6624C278.484 54.5724 276.016 57.0311 273.094 57.0311H230.906C227.984 57.0311 225.516 54.5724 225.516 51.6624V9.64641C225.516 6.73638 227.984 4.2777 230.906 4.2777H273.094C276.016 4.2777 278.484 6.73638 278.484 9.64641V51.6624Z" fill="#D0D650"/>
</g>
<defs>
<clipPath id="clip0">
<rect width="60" height="59.7561" fill="white" transform="translate(333 0.776367)"/>
</clipPath>
<clipPath id="clip1">
<rect width="60" height="59.7561" fill="white" transform="translate(111 0.776367)"/>
</clipPath>
<clipPath id="clip2">
<rect width="60" height="59.7561" fill="white" transform="translate(0 0.776367)"/>
</clipPath>
<clipPath id="clip3">
<rect width="60" height="59.7561" fill="white" transform="translate(222 0.776367)"/>
</clipPath>
</defs>
</svg>
