<svg width="60" height="61" viewBox="0 0 60 61" fill="none" xmlns="http://www.w3.org/2000/svg">
<path d="M44.1542 0.776367H15.8458C6.96 0.776367 0 7.70807 0 16.5578V44.7511C0 53.6008 6.96 60.5325 15.8458 60.5325H44.1542C53.04 60.5325 60 53.6008 60 44.7511V16.5578C60 7.70807 53.0381 0.776367 44.1542 0.776367ZM56.129 44.7511C56.129 51.4399 50.8684 56.6772 44.1542 56.6772H15.8458C9.13161 56.6772 3.87097 51.438 3.87097 44.7511V16.5578C3.87097 9.87086 9.13161 4.6316 15.8458 4.6316H44.1542C50.8703 4.6316 56.129 9.87086 56.129 16.5578V44.7511Z" fill="#D0D650"/>
<path d="M48.8689 16.0335C48.2477 15.5805 47.4154 15.5419 46.7515 15.9274C46.0896 16.3149 44.6225 16.5057 43.4457 16.6599C43.2018 16.6927 42.9618 16.7235 42.7296 16.7563C41.0825 15.3954 38.9786 14.6321 36.8089 14.6321C31.9218 14.6321 27.9115 18.3986 27.627 23.1367C23.1947 22.3927 19.136 20.0911 16.2599 16.6329C15.8322 16.1163 15.1683 15.8638 14.4986 15.9506C13.8328 16.0431 13.2638 16.473 12.9947 17.0859C12.8709 17.3674 11.7909 20.014 11.7909 26.5602C11.7909 32.2293 16.2831 36.3949 19.3644 38.5866C17.2567 39.5407 14.8276 39.8916 12.5206 39.6371C11.6186 39.5407 10.7747 40.0689 10.4767 40.9151C10.1786 41.7633 10.5077 42.704 11.2702 43.1839C14.9089 45.4701 19.1147 46.6787 23.4347 46.6787C37.3083 46.6787 45.7044 35.8243 46.016 25.1222C46.4147 24.5458 47.1754 23.4239 48.4606 21.4558C48.9754 20.6636 49.407 18.9557 49.618 18.0093C49.7864 17.2613 49.4902 16.4845 48.8689 16.0335ZM42.5244 23.37C42.2864 23.6977 42.1567 24.0947 42.1567 24.4995C42.1567 32.1078 36.3483 42.8235 23.4367 42.8235C22.2696 42.8235 21.1122 42.7174 19.978 42.5093C21.4915 41.9387 22.9218 41.1426 24.236 40.1344C24.7625 39.7316 25.0431 39.0839 24.9812 38.4266C24.9193 37.7693 24.5225 37.1871 23.9283 36.8883C23.8451 36.8459 15.6638 32.5608 15.6638 26.5621C15.6638 24.5516 15.7722 22.9709 15.9154 21.7681C19.7147 25.0258 24.5496 26.9746 29.638 27.2252C29.6767 27.2271 29.7173 27.2291 29.7541 27.2271C30.8806 27.1944 31.7089 26.3713 31.7089 25.2995C31.7089 25.0335 31.6547 24.781 31.556 24.5497C31.5077 24.2605 31.4825 23.9695 31.4825 23.6784C31.4825 20.8159 33.8709 18.4873 36.8089 18.4873C38.2838 18.4873 39.7025 19.0887 40.7031 20.1354C41.1599 20.6096 41.8277 20.8236 42.4722 20.6983C42.9115 20.6154 43.4186 20.5499 43.9509 20.4805C44.1406 20.4554 44.3322 20.4303 44.5276 20.4034C43.0741 22.6086 42.5496 23.3353 42.5244 23.37Z" fill="#D0D650"/>
</svg>
